<?xml version="1.0" encoding="utf-8"?>
<!-- Generator: Adobe Illustrator 22.1.0, SVG Export Plug-In . SVG Version: 6.00 Build 0)  -->
<svg version="1.1" id="Calque_1" xmlns="http://www.w3.org/2000/svg" xmlns:xlink="http://www.w3.org/1999/xlink" x="0px" y="0px"
	 viewBox="0 0 90.6 25.4" style="enable-background:new 0 0 90.6 25.4;" xml:space="preserve">
<style type="text/css">
	.st0{fill:none;}
</style>
<g>
	<path class="st0" d="M72.6,11.4c-0.1,0.4-0.1,0.8-0.1,1.3c0,0.8,0.1,1.5,0.4,2.1c0.3,0.7,0.6,1.3,1.1,1.8s1,0.9,1.6,1.2
		c0.6,0.3,1.3,0.4,2,0.4s1.4-0.1,2-0.4s1.1-0.7,1.6-1.2s0.8-1.1,1.1-1.8c0.3-0.7,0.4-1.4,0.4-2.1c0-0.8-0.1-1.5-0.4-2.2
		s-0.6-1.3-1.1-1.8s-1-0.9-1.6-1.2C79,7.2,78.3,7,77.6,7c-0.1,0-0.1,0-0.2,0v4.3h-4.8V11.4z"/>
	<path d="M21,0.7l-4,7.9c-0.3,0.6-0.6,1.2-0.9,2c-0.3,0.7-0.6,1.4-0.8,2.1l0,0c-0.3-0.7-0.5-1.4-0.9-2.1c-0.3-0.7-0.6-1.4-0.9-1.9
		l-4.2-8H2.1L0,24.7h8l0.6-6.9c0.1-0.6,0.1-1.1,0.1-1.7c0-0.5,0-1.1-0.1-1.8h0.1c0.4,1.3,0.8,2.4,1.4,3.5l3.5,6.8h3.3l3.5-6.8
		c0.3-0.6,0.6-1.1,0.8-1.7c0.2-0.5,0.4-1.2,0.6-1.8h0.1c-0.1,0.7-0.1,1.3,0,1.8c0,0.6,0.1,1.1,0.1,1.6l0.6,6.9h8L28.3,0.7H21z"/>
	<rect x="33.6" y="0.7" width="8" height="24.1"/>
	<path d="M61,12.3c-0.6-0.7-1.3-1.3-2-1.8s-1.6-0.9-2.5-1.2c-0.8-0.3-1.4-0.5-1.9-0.7s-0.8-0.3-1.1-0.4C53.3,8.1,53.1,8,53,7.8
		c0,0,0-0.2,0-0.3c0-0.3,0.1-0.5,0.4-0.7c0.3-0.1,0.8-0.2,1.7-0.2s1.9,0.2,2.8,0.5c0.9,0.3,1.8,0.7,2.5,1.1l0.2-6.7
		c-0.3-0.2-0.6-0.4-1-0.6s-0.8-0.3-1.4-0.5c-0.5-0.1-1.1-0.2-1.8-0.3C55.8,0,55,0,54.1,0c-1.4,0-2.6,0.2-3.7,0.6
		c-1.1,0.4-2.1,0.9-2.8,1.6c-0.8,0.7-1.4,1.6-1.8,2.5C45.3,5.8,45,6.9,45,8c0,1.7,0.5,3.2,1.6,4.6s2.6,2.5,4.7,3.2
		c0.8,0.3,1.4,0.5,1.8,0.7c0.5,0.2,0.8,0.3,1,0.5c0.2,0.1,0.4,0.3,0.5,0.4s0.1,0.3,0.1,0.5c0,0.3-0.2,0.6-0.5,0.7
		c-0.4,0.2-0.9,0.2-1.7,0.2c-1.4,0-2.8-0.2-4.1-0.7s-2.6-1.2-3.7-2.3l0.2,7.2c1.1,0.9,2.3,1.5,3.7,1.8c1.4,0.4,2.9,0.6,4.6,0.6
		c3.2,0,5.6-0.7,7.2-2.2c1.6-1.5,2.4-3.5,2.4-6.1c0-0.9-0.2-1.7-0.5-2.5C62,13.8,61.6,13,61,12.3z"/>
	<path d="M89.5,7.5c-0.7-1.6-1.7-2.9-2.9-4c-1.2-1.1-2.6-2-4.2-2.6S79.2,0,77.4,0c-0.1,0-0.1,0-0.2,0v7.1c0.1,0,0.1,0,0.2,0
		c0.7,0,1.4,0.2,2,0.5s1.1,0.7,1.6,1.2s0.8,1.1,1.1,1.8c0.3,0.7,0.4,1.4,0.4,2.2s-0.1,1.5-0.4,2.1c-0.3,0.7-0.6,1.3-1.1,1.8
		s-1,0.9-1.6,1.2c-0.6,0.3-1.3,0.4-2,0.4s-1.4-0.1-2-0.4s-1.1-0.7-1.6-1.2s-0.8-1.1-1.1-1.8c-0.3-0.7-0.4-1.4-0.4-2.1
		c0-0.4,0.1-0.9,0.1-1.3h-8.3c0,0.4-0.1,0.8-0.1,1.3c0,1.9,0.4,3.7,1.1,5.2c0.7,1.6,1.7,2.9,2.9,4s2.6,2,4.2,2.6s3.2,0.9,5,0.9
		s3.4-0.3,5-0.9s3-1.5,4.2-2.6s2.2-2.4,2.9-4c0.7-1.6,1.1-3.3,1.1-5.2C90.6,10.8,90.2,9,89.5,7.5z"/>
</g>
</svg>
