<?xml version="1.0" encoding="utf-8"?>
<!-- Generator: Adobe Illustrator 22.1.0, SVG Export Plug-In . SVG Version: 6.00 Build 0)  -->
<svg version="1.1" id="Calque_1" xmlns="http://www.w3.org/2000/svg" xmlns:xlink="http://www.w3.org/1999/xlink" x="0px" y="0px"
	 viewBox="0 0 270 300" style="enable-background:new 0 0 270 300;" xml:space="preserve">
<style type="text/css">
	.st0{fill:#FFFFFF;}
	.st1{opacity:0.2;}
	.st2{opacity:0.3;fill:url(#SVGID_1_);}
</style>
<g>
	<path d="M135.6,204.2c-39.2,0-77.8-18.9-89.8-41.3c-0.6-1.2-2.9-2.4-5-3.7c-3.6-2-7.7-4.4-7.7-7.8c0-3.2,4.1-6.1,8-9
		c2.2-1.6,4.5-3.3,5.2-4.4c13.7-24,47.1-40.3,89.3-40.3c40.4,0,78.6,18.2,90.7,40.5c0.7,1.2,2.5,2.7,4.2,4.2c3,2.5,6.4,5.3,6.4,8.5
		c0,2.6-2.8,4.9-5.2,6.9c-1.4,1.2-2.9,2.4-3.3,3.3C218.5,184.5,178.6,204.2,135.6,204.2z"/>
	<path class="st0" d="M135.6,104.7c-38.6,0-69.1,13.1-81.7,35c-1.1,2-3.8,3.9-6.6,5.9c-2.6,1.9-6.1,4.4-6.1,5.8
		c0,1.3,2.5,2.7,5.1,4.2c2.8,1.6,5.9,3.4,7.2,5.7c10.9,20.5,46.2,35.9,82.1,35.9c39.5,0,76-16.1,85-37.3c0.8-1.8,2.7-3.4,4.7-5
		c1.6-1.3,3.6-3,3.6-3.9c0-1.6-2.5-3.6-4.8-5.6c-2.1-1.8-4.3-3.6-5.4-5.5C207.6,119.5,172.6,104.7,135.6,104.7z"/>
	<g class="st1">
		<path d="M135.6,102.2c39,0,75.4,15.7,86.9,36.8c2.1,3.8,10.4,7.8,10.4,11.9c0,3.2-7.1,6.5-8.4,9.5c-9.5,22.4-48.3,39.2-88.9,39.2
			c-38.6,0-74.8-16.8-85.9-37.6c-2.1-4-12.5-6.4-12.5-10.7c0-4,10.8-8.9,12.9-12.5C63.7,115,96.3,102.2,135.6,102.2 M135.6,90.8
			c-45.7,0-81.9,19.5-96.9,45.4c-0.5,0.6-2.5,2-3.8,2.9c-4.4,3.2-9.9,7.2-9.9,12.2c0,5.6,6.2,9.1,10.3,11.4c1,0.6,2.4,1.4,3,1.8
			c6.3,11.6,19.4,24.3,36.9,32.1c18,8,39.4,14.4,60.4,14.4c46.4,0,89.6-23.1,100.5-48.5c0.4-0.4,1.4-1.2,2.1-1.8
			c2.9-2.4,6.8-5.6,6.8-9.8c0-4.8-4.4-8.5-8-11.4c-1.1-0.9-2.7-2.3-3.1-2.8C220.8,112.4,179.4,90.8,135.6,90.8L135.6,90.8z"/>
	</g>
	<g>
		<path d="M135.6,204.2c-2.2,0-4-3.1-4-4.5s1.8-2.5,4-2.5c46.5,0,84.3-20.8,84.3-46.3c0-25.5-37.8-46.3-84.3-46.3
			S51.4,125.4,51.4,151c0,1.4-1.8,2.5-4,2.5c-2.2,0-4-1.1-4-2.5c0-28.2,41.4-53.2,92.3-53.2s92.3,25,92.3,53.2
			C227.9,179.2,186.5,204.2,135.6,204.2z"/>
	</g>
	<g>
		<g>
			<path class="st0" d="M133.5,107.9c22.2,0,40.1,18,40.1,40.1s-18,40.1-40.1,40.1s-40.1-18-40.1-40.1"/>
			<path d="M133.5,191.3c-23.9,0-43.3-19.4-43.3-43.3c0-1.7,1.4-3.2,3.2-3.2c1.7,0,3.2,1.4,3.2,3.2c0,20.4,16.6,37,37,37
				s37-16.6,37-37s-16.6-37-37-37c-1.7,0-3.2-1.4-3.2-3.2c0-1.7,1.4-3.2,3.2-3.2c23.9,0,43.3,19.4,43.3,43.3
				C176.8,171.8,157.3,191.3,133.5,191.3z"/>
		</g>
		<g>
			<circle cx="133.5" cy="148" r="27.9"/>
		</g>
		<g>
			<circle class="st0" cx="118.8" cy="130.5" r="17.5"/>
		</g>
	</g>
	<g>
		<path d="M80.8,84c-1.3,0-2.5-0.6-3.3-1.7c-1.3-1.8-0.8-4.3,1-5.6c15.2-10.5,34.7-16.4,54.8-16.4c22.1,0,39.3,4.3,52.8,13
			c1.9,1.2,2.4,3.7,1.2,5.6c-1.2,1.9-3.7,2.4-5.6,1.2c-11.9-7.8-28.2-11.7-48.4-11.7c-18.5,0-36.3,5.3-50.2,14.9
			C82.4,83.8,81.6,84,80.8,84z"/>
	</g>
	<g>
		<path d="M189.9,216c1.3,0,2.5,0.6,3.3,1.7c1.3,1.8,0.8,4.3-1,5.6c-15.2,10.5-34.7,16.4-54.8,16.4c-22.1,0-39.3-4.3-52.8-13
			c-1.9-1.2-2.4-3.7-1.2-5.6c1.2-1.9,3.7-2.4,5.6-1.2c11.9,7.8,28.2,11.7,48.4,11.7c18.5,0,36.3-5.3,50.2-14.9
			C188.3,216.2,189.1,216,189.9,216z"/>
	</g>
	
		<radialGradient id="SVGID_1_" cx="135.6084" cy="662.4116" r="80.5329" gradientTransform="matrix(1 0 0 0.6104 0 -253.3999)" gradientUnits="userSpaceOnUse">
		<stop  offset="0.2496" style="stop-color:#FFFFFF;stop-opacity:0"/>
		<stop  offset="0.5292" style="stop-color:#FDFDFD;stop-opacity:0.3726"/>
		<stop  offset="0.63" style="stop-color:#F6F6F6;stop-opacity:0.5069"/>
		<stop  offset="0.7018" style="stop-color:#EBEBEB;stop-opacity:0.6026"/>
		<stop  offset="0.7599" style="stop-color:#DADADA;stop-opacity:0.68"/>
		<stop  offset="0.8096" style="stop-color:#C4C4C4;stop-opacity:0.7463"/>
		<stop  offset="0.8536" style="stop-color:#A8A8A8;stop-opacity:0.805"/>
		<stop  offset="0.8935" style="stop-color:#888888;stop-opacity:0.8581"/>
		<stop  offset="0.9301" style="stop-color:#626262;stop-opacity:0.9069"/>
		<stop  offset="0.9642" style="stop-color:#373737;stop-opacity:0.9523"/>
		<stop  offset="0.9945" style="stop-color:#090909;stop-opacity:0.9926"/>
		<stop  offset="1" style="stop-color:#000000"/>
	</radialGradient>
	<path class="st2" d="M135.6,104.7c46.9,0,85,20.8,85,46.3c0,25.4-37.9,46.2-84.6,46.3c-85.7-6.6-85.4-44.6-85.4-46.2l0-0.1V151
		C50.6,125.4,88.7,104.7,135.6,104.7"/>
</g>
</svg>
