<?xml version="1.0" encoding="utf-8"?>
<!-- Generator: Adobe Illustrator 22.1.0, SVG Export Plug-In . SVG Version: 6.00 Build 0)  -->
<svg version="1.1" id="Calque_1" xmlns="http://www.w3.org/2000/svg" xmlns:xlink="http://www.w3.org/1999/xlink" x="0px" y="0px"
	 viewBox="0 0 270 300" style="enable-background:new 0 0 270 300;" xml:space="preserve">
<style type="text/css">
	.st0{fill:none;stroke:#000000;stroke-width:8;stroke-linecap:round;stroke-linejoin:round;stroke-miterlimit:10;}
	.st1{opacity:0.2;fill:none;stroke:#000000;stroke-width:18;stroke-linecap:round;stroke-linejoin:round;stroke-miterlimit:10;}
</style>
<g>
	<g>
		<path d="M80,110.8c-1.3,0-2.5-0.6-3.3-1.7c-1.3-1.8-0.8-4.3,1-5.6c15.2-10.5,34.7-16.4,54.8-16.4c22.1,0,39.3,4.3,52.8,13
			c1.9,1.2,2.4,3.7,1.2,5.6c-1.2,1.9-3.7,2.4-5.6,1.2c-11.9-7.8-28.2-11.7-48.4-11.7c-18.5,0-36.3,5.3-50.2,14.9
			C81.6,110.6,80.8,110.8,80,110.8z"/>
	</g>
	<g>
		<path d="M189.1,189.2c1.3,0,2.5,0.6,3.3,1.7c1.3,1.8,0.8,4.3-1,5.6c-15.2,10.5-34.7,16.4-54.8,16.4c-22.1,0-39.3-4.3-52.8-13
			c-1.9-1.2-2.4-3.7-1.2-5.6c1.2-1.9,3.7-2.4,5.6-1.2c11.9,7.8,28.2,11.7,48.4,11.7c18.5,0,36.3-5.3,50.2-14.9
			C187.5,189.4,188.3,189.2,189.1,189.2z"/>
	</g>
	<line class="st0" x1="40.3" y1="149.2" x2="229.7" y2="149.2"/>
	<line class="st1" x1="40.3" y1="149.2" x2="229.7" y2="149.2"/>
</g>
</svg>
