<?xml version="1.0" encoding="utf-8"?>
<!-- Generator: Adobe Illustrator 22.1.0, SVG Export Plug-In . SVG Version: 6.00 Build 0)  -->
<svg version="1.1" id="Calque_1" xmlns="http://www.w3.org/2000/svg" xmlns:xlink="http://www.w3.org/1999/xlink" x="0px" y="0px"
	 viewBox="0 0 644 339" style="enable-background:new 0 0 644 339;" xml:space="preserve">
<style type="text/css">
	.st0{fill:#EDB48E;}
	.st1{fill:#213451;}
</style>
<g>
	<g>
		<path class="st0" d="M106.8,304.4v0.3h-9.5v-2.1c-0.1,0.2-0.3,0.4-0.4,0.6s-0.4,0.5-0.7,0.8c-0.1,0.1-0.3,0.3-0.5,0.4
			s-0.3,0.2-0.5,0.3c-0.2,0.1-0.3,0.2-0.5,0.2c-0.6,0.1-1.2,0.2-1.8,0.2c-0.8,0-1.5-0.1-2.3-0.3c-0.8-0.2-1.6-0.5-2.3-1
			c-0.9-0.5-1.6-1.1-2.1-1.8c-0.5-0.7-1-1.4-1.3-2.1c-0.3-0.8-0.5-1.6-0.6-2.4c-0.1-0.8-0.2-1.6-0.2-2.4c0-0.8,0.1-1.6,0.2-2.4
			c0.1-0.8,0.3-1.6,0.6-2.4c0.3-0.8,0.8-1.5,1.3-2.1c0.6-0.7,1.3-1.2,2.1-1.8c0.7-0.4,1.4-0.7,2.1-0.9s1.4-0.3,2.1-0.3
			c0.9,0,1.6,0.1,2.2,0.3c0.6,0.2,1.1,0.6,1.5,1c0.3,0.3,0.5,0.5,0.7,0.8c0.2,0.2,0.3,0.4,0.5,0.6v-8.6h-2.8v-0.3h2.8
			c0.9,0,1.8-0.1,2.6-0.2c0.7,0,1.4-0.1,2.2-0.2c0.8-0.1,1.4-0.2,1.9-0.4v26.2H106.8z M97.3,291.3c0-0.5,0-1-0.1-1.4
			c0-0.5-0.1-0.9-0.3-1.3c-0.1-0.3-0.3-0.7-0.4-1s-0.4-0.6-0.6-0.8c-0.3-0.2-0.5-0.4-0.7-0.5s-0.4-0.1-0.6-0.1
			c-0.4,0-0.8,0.2-1.2,0.5c-0.4,0.3-0.7,0.6-0.9,1c-0.4,0.7-0.7,1.7-0.8,3c-0.1,1.3-0.1,2.8-0.1,4.4s0,3,0.1,4.3s0.3,2.3,0.8,3
			c0.1,0.1,0.2,0.3,0.4,0.5s0.3,0.4,0.6,0.6c0.2,0.2,0.5,0.4,0.7,0.5c0.3,0.1,0.6,0.2,0.8,0.2c0.2,0,0.4,0,0.5-0.1
			c0.1-0.1,0.3-0.3,0.6-0.5c0.2-0.2,0.4-0.4,0.5-0.7c0.1-0.3,0.2-0.6,0.3-0.9c0.2-0.8,0.3-1.6,0.3-2.4V291.3z"/>
		<path class="st0" d="M115.4,295.6c0,1,0,1.9,0.1,2.9c0.1,1,0.3,1.9,0.7,2.6c0.4,0.8,0.9,1.4,1.6,1.9c0.7,0.5,1.7,0.7,2.9,0.7
			c0.9,0,1.7-0.2,2.3-0.5c0.7-0.3,1.3-0.7,1.8-1.2c0.5-0.5,0.9-1.1,1.3-1.8s0.7-1.4,0.9-2.1l0.4,0c-0.3,1-0.7,1.9-1.1,2.7
			c-0.4,0.8-0.9,1.6-1.6,2.2c-0.7,0.6-1.5,1.1-2.5,1.4c-1,0.3-2.2,0.5-3.6,0.5c-0.7,0-1.2,0-1.8,0s-1-0.1-1.6-0.2
			c-0.5-0.1-1.1-0.3-1.7-0.6c-0.6-0.3-1.3-0.7-2.1-1.2c-1-0.6-1.9-1.6-2.6-3s-1.1-3-1.1-4.9c0-1.5,0.2-2.8,0.6-3.9s0.9-2,1.6-2.7
			c0.7-0.7,1.4-1.3,2.2-1.8c0.8-0.4,1.6-0.8,2.4-1c0.8-0.2,1.6-0.4,2.3-0.5c0.7-0.1,1.3-0.1,1.8-0.1c1,0,2.1,0.1,3.2,0.3
			c1.1,0.2,2.1,0.5,3,1c0.9,0.5,1.6,1.2,2.2,2c0.6,0.8,0.9,1.9,0.9,3.2c0,0.8-0.2,1.4-0.7,1.8c-0.5,0.4-1,0.8-1.7,1
			c-0.7,0.2-1.4,0.4-2.2,0.4c-0.8,0-1.5,0.1-2.2,0.1h-5.9V295.6z M118,285.6c-0.6,0-1.1,0.3-1.4,0.7c-0.3,0.5-0.6,1.1-0.8,1.8
			c-0.2,0.7-0.3,1.5-0.3,2.3s-0.1,1.6-0.1,2.4v1.9h3.2c0.1,0,0.4,0,0.8-0.1c0.4,0,0.7-0.2,1-0.4c0.1-0.1,0.3-0.3,0.3-0.6
			c0.1-0.2,0.1-0.5,0.2-0.7c0-0.2,0.1-0.4,0.1-0.6c0-0.2,0-0.3,0-0.4c0-1.3-0.1-2.4-0.2-3.2c-0.2-0.8-0.4-1.5-0.6-1.9
			c-0.3-0.5-0.6-0.8-0.9-1c-0.3-0.2-0.7-0.3-1-0.3H118z"/>
		<path class="st0" d="M161.8,287.8c0.2-0.3,0.3-0.5,0.5-0.7c0.1-0.2,0.3-0.4,0.5-0.6c0.2-0.2,0.4-0.4,0.5-0.5
			c0.6-0.5,1.2-0.8,1.9-1.1c0.6-0.2,1.3-0.3,2.1-0.3s1.5,0.1,2.3,0.2c0.8,0.1,1.5,0.4,2.1,0.8s1.1,1,1.5,1.7
			c0.1,0.3,0.2,0.5,0.3,0.8s0.1,0.6,0.1,0.9v10.8c0,1.4,0.2,2.6,0.5,3.4s0.9,1.3,1.7,1.3v0.3h-3.2c-1.2,0-2.2-0.1-3-0.4
			c-0.8-0.3-1.5-0.7-1.9-1.2s-0.8-1.1-1-1.7c-0.2-0.7-0.3-1.4-0.3-2.1v-10.2c0-0.5-0.1-1-0.2-1.5s-0.3-0.9-0.6-1.3
			c-0.1-0.2-0.3-0.3-0.6-0.3c-0.2-0.1-0.5-0.1-0.7-0.1c-0.2,0-0.4,0.1-0.6,0.2c-0.2,0.1-0.4,0.3-0.6,0.5c-0.2,0.2-0.4,0.6-0.6,1.1
			s-0.3,1.1-0.4,1.7c-0.1,0.6-0.2,1.2-0.2,1.7c0,0.6-0.1,1-0.1,1.3v7.3c0,1.4,0.2,2.6,0.5,3.4c0.3,0.8,0.9,1.3,1.7,1.3v0.3h-3.2
			c-1.2,0-2.2-0.1-3-0.4c-0.8-0.3-1.5-0.7-1.9-1.2s-0.8-1.1-1-1.7c-0.2-0.7-0.3-1.4-0.3-2.1v-10.2c0-0.5-0.1-1-0.2-1.5
			c-0.1-0.5-0.3-0.9-0.6-1.3c-0.1-0.2-0.3-0.3-0.6-0.3c-0.2-0.1-0.5-0.1-0.7-0.1c-0.2,0-0.4,0.1-0.6,0.2c-0.2,0.1-0.4,0.3-0.5,0.5
			c-0.2,0.2-0.4,0.5-0.6,0.9c-0.1,0.4-0.3,0.8-0.4,1.3c-0.1,0.5-0.2,0.9-0.2,1.3c0,0.4-0.1,0.8-0.1,1.1v13.2h2.8v0.3h-13v-0.3h2.8
			v-18.7h-2.8v-0.3c0.7,0,1.5,0,2.5,0c1,0,2-0.1,2.9-0.1c1-0.1,1.9-0.1,2.8-0.2s1.6-0.2,2.1-0.4v3.1c0.2-0.4,0.4-0.8,0.6-1
			c0.2-0.3,0.5-0.5,0.9-0.8c0.6-0.5,1.2-0.8,1.9-1.1c0.6-0.2,1.3-0.3,2.1-0.3c0.7,0,1.5,0.1,2.3,0.2c0.8,0.1,1.5,0.4,2.1,0.8
			c0.6,0.4,1.1,1,1.5,1.7c0,0.1,0.1,0.3,0.1,0.4c0,0.1,0.1,0.3,0.1,0.4C161.7,288,161.7,287.9,161.8,287.8
			C161.8,287.8,161.8,287.8,161.8,287.8z"/>
		<path class="st0" d="M184.7,295.6c0,1,0,1.9,0.1,2.9c0.1,1,0.3,1.9,0.7,2.6c0.4,0.8,0.9,1.4,1.6,1.9c0.7,0.5,1.7,0.7,2.9,0.7
			c0.9,0,1.7-0.2,2.3-0.5c0.7-0.3,1.3-0.7,1.8-1.2c0.5-0.5,0.9-1.1,1.3-1.8s0.7-1.4,0.9-2.1l0.4,0c-0.3,1-0.7,1.9-1.1,2.7
			c-0.4,0.8-0.9,1.6-1.6,2.2c-0.7,0.6-1.5,1.1-2.5,1.4c-1,0.3-2.2,0.5-3.6,0.5c-0.7,0-1.2,0-1.8,0s-1-0.1-1.6-0.2
			c-0.5-0.1-1.1-0.3-1.7-0.6c-0.6-0.3-1.3-0.7-2.1-1.2c-1-0.6-1.9-1.6-2.6-3s-1.1-3-1.1-4.9c0-1.5,0.2-2.8,0.6-3.9s0.9-2,1.6-2.7
			c0.7-0.7,1.4-1.3,2.2-1.8c0.8-0.4,1.6-0.8,2.4-1c0.8-0.2,1.6-0.4,2.3-0.5c0.7-0.1,1.3-0.1,1.8-0.1c1,0,2.1,0.1,3.2,0.3
			c1.1,0.2,2.1,0.5,3,1c0.9,0.5,1.6,1.2,2.2,2c0.6,0.8,0.9,1.9,0.9,3.2c0,0.8-0.2,1.4-0.7,1.8c-0.5,0.4-1,0.8-1.7,1
			c-0.7,0.2-1.4,0.4-2.2,0.4c-0.8,0-1.5,0.1-2.2,0.1h-5.9V295.6z M187.4,285.6c-0.6,0-1.1,0.3-1.4,0.7c-0.3,0.5-0.6,1.1-0.8,1.8
			c-0.2,0.7-0.3,1.5-0.3,2.3s-0.1,1.6-0.1,2.4v1.9h3.2c0.1,0,0.4,0,0.8-0.1c0.4,0,0.7-0.2,1-0.4c0.1-0.1,0.3-0.3,0.3-0.6
			c0.1-0.2,0.1-0.5,0.2-0.7c0-0.2,0.1-0.4,0.1-0.6c0-0.2,0-0.3,0-0.4c0-1.3-0.1-2.4-0.2-3.2c-0.2-0.8-0.4-1.5-0.6-1.9
			c-0.3-0.5-0.6-0.8-0.9-1c-0.3-0.2-0.7-0.3-1-0.3H187.4z"/>
		<path class="st0" d="M227.8,300.2c-0.2,0.6-0.5,1.2-0.9,1.8l-0.5,0.7c-0.7,0.8-1.5,1.4-2.4,1.8c-1,0.4-1.9,0.6-3,0.6
			c-0.6,0-1.2,0-2-0.1s-1.6-0.2-2.4-0.5c-0.8-0.2-1.7-0.6-2.5-1s-1.6-1-2.2-1.8c-0.6-0.7-1.2-1.6-1.6-2.7c-0.4-1.1-0.6-2.4-0.6-3.9
			c0-1.4,0.2-2.6,0.5-3.6c0.4-1,0.8-1.9,1.4-2.6c0.6-0.7,1.2-1.3,2-1.8s1.5-0.8,2.2-1.1c0.7-0.3,1.4-0.5,2-0.6
			c0.6-0.1,1.2-0.2,1.6-0.2c2.6,0,4.7,0.4,6.2,1.2c1.5,0.8,2.3,2.1,2.3,3.7c0,0.5-0.1,0.9-0.3,1.3s-0.4,0.8-0.8,1.1
			c-0.3,0.3-0.7,0.5-1.1,0.7c-0.4,0.2-0.8,0.3-1.2,0.3s-0.9-0.1-1.3-0.3c-0.4-0.2-0.8-0.4-1.1-0.7s-0.5-0.7-0.7-1.1
			s-0.3-0.8-0.3-1.3c0-0.4,0.1-0.9,0.3-1.3s0.4-0.8,0.8-1.1l0.1-0.1c0.2-0.1,0.4-0.3,0.6-0.6c0.2-0.2,0.3-0.5,0.3-0.7
			c0-0.2-0.1-0.4-0.3-0.5c-0.2-0.1-0.4-0.2-0.6-0.2c-0.2,0-0.5-0.1-0.8-0.1c-0.3,0-0.5,0-0.6,0c-0.7,0-1.3,0.2-1.8,0.6
			c-0.5,0.4-0.9,0.9-1.1,1.7s-0.5,1.8-0.6,3c-0.1,1.2-0.2,2.7-0.2,4.4c0,0.3,0,0.7,0,1.1c0,0.4,0,0.7,0,0.8c0,0,0,0.2,0,0.6
			s0.1,0.7,0.2,1.2c0.1,0.5,0.3,1,0.5,1.5c0.2,0.5,0.5,1,0.8,1.5c0.3,0.5,0.8,0.9,1.2,1.2s1.1,0.5,1.8,0.6h0.4
			c1.4,0,2.6-0.5,3.6-1.5c1-1,1.7-2.3,2.1-3.9l0.3,0C228.2,298.9,228,299.6,227.8,300.2z"/>
		<path class="st0" d="M247.6,287.3c1,0.7,1.9,1.7,2.6,3c0.7,1.3,1.1,3,1.1,4.9c0,1.9-0.4,3.5-1.1,4.9c-0.7,1.3-1.6,2.3-2.6,3
			c-0.8,0.5-1.4,0.9-2,1.2c-0.5,0.3-1.1,0.5-1.5,0.6c-0.5,0.1-1,0.2-1.4,0.2c-0.5,0-1,0-1.7,0h-0.4c-0.7,0-1.2,0-1.7,0
			s-1-0.1-1.5-0.2c-0.5-0.1-1.1-0.3-1.6-0.6c-0.6-0.3-1.3-0.7-2-1.2c-1-0.6-1.9-1.6-2.6-3s-1.1-3-1.1-4.9c0-1.9,0.4-3.5,1.1-4.9
			c0.7-1.3,1.6-2.3,2.6-3c0.8-0.5,1.5-0.9,2-1.2c0.6-0.3,1.1-0.5,1.6-0.6c0.5-0.1,1-0.2,1.4-0.2c0.5,0,1,0,1.7,0h0.6
			c0.7,0,1.2,0,1.7,0c0.5,0,1,0.1,1.4,0.2c0.5,0.1,1,0.3,1.5,0.6C246.2,286.4,246.9,286.8,247.6,287.3z M242.7,303.6
			c0.2-0.3,0.4-0.8,0.5-1.3c0.1-0.6,0.3-1.2,0.3-2s0.1-1.6,0.2-2.4c0-0.9,0-1.8,0-2.8s0-1.9-0.1-2.8c0-0.9-0.1-1.7-0.2-2.4
			c-0.1-0.7-0.2-1.4-0.4-2s-0.4-1-0.7-1.3c-0.5-0.6-0.9-0.9-1.2-1s-0.5-0.1-0.6-0.1s-0.4,0-0.7,0.1c-0.3,0.1-0.7,0.4-1.2,1
			c-0.3,0.3-0.5,0.7-0.7,1.3c-0.2,0.6-0.3,1.2-0.4,2c-0.1,0.7-0.2,1.6-0.2,2.4c0,0.9,0,1.8,0,2.8s0,1.9,0,2.8c0,0.9,0.1,1.7,0.2,2.4
			c0.1,0.7,0.2,1.4,0.4,2c0.2,0.6,0.4,1,0.7,1.3c0.3,0.4,0.7,0.6,1,0.8c0.4,0.2,0.6,0.3,0.8,0.3h0.3
			C241.6,304.7,242.2,304.4,242.7,303.6z"/>
		<path class="st0" d="M276.6,304.7h-3.2c-1.2,0-2.2-0.1-3-0.4s-1.5-0.7-2-1.2s-0.9-1.1-1.1-1.7c-0.2-0.7-0.3-1.4-0.3-2.1v-10.2
			c0-0.5-0.1-1-0.2-1.5c-0.1-0.5-0.3-0.9-0.6-1.3c-0.1-0.2-0.3-0.3-0.6-0.3c-0.2-0.1-0.5-0.1-0.7-0.1c-0.2,0-0.4,0.1-0.6,0.2
			c-0.2,0.1-0.4,0.3-0.5,0.5c-0.2,0.2-0.4,0.5-0.6,0.9c-0.1,0.4-0.3,0.8-0.4,1.3c-0.1,0.5-0.2,0.9-0.2,1.3c0,0.4-0.1,0.8-0.1,1.1
			v13.2h2.8v0.3h-13v-0.3h2.8v-18.4h-2.8v-0.3c0.7,0,1.5,0,2.5,0s2-0.1,2.9-0.1c1-0.1,1.9-0.1,2.8-0.2c0.9-0.1,1.6-0.2,2.1-0.4v2.8
			c0.2-0.4,0.4-0.8,0.6-1c0.2-0.3,0.5-0.5,0.9-0.8c0.6-0.5,1.2-0.8,1.9-1.1c0.6-0.2,1.3-0.3,2.1-0.3c0.7,0,1.5,0.1,2.3,0.2
			c0.8,0.1,1.6,0.4,2.2,0.8s1.1,1,1.5,1.7c0.1,0.3,0.2,0.5,0.3,0.8s0.1,0.6,0.1,0.9v10.8c0,1.4,0.2,2.6,0.5,3.4s0.9,1.3,1.7,1.3
			V304.7z"/>
		<path class="st0" d="M290.7,284.5c-0.3,0-0.8,0-1.3-0.1c-0.6,0-1.1-0.2-1.7-0.3c-0.5-0.2-1-0.5-1.4-0.9c-0.4-0.4-0.6-1-0.6-1.7
			c0-0.4,0.1-0.7,0.3-1c0.2-0.3,0.3-0.6,0.3-0.9c0-0.1-0.1-0.3-0.2-0.3c-0.2-0.1-0.4-0.1-0.6-0.1h-0.2c-0.5,0-0.8,0.2-1.1,0.5
			c-0.2,0.3-0.3,0.7-0.3,1.2c0,0.9,0.2,1.6,0.5,2.3c0.3,0.6,0.8,1.1,1.3,1.6c0.5,0.4,1.2,0.7,1.9,0.9c0.7,0.2,1.5,0.3,2.4,0.3v0.3
			h-3.2v18.4h2.8v0.3h-12.3v-0.3h2.8v-18.4h-2.8v-0.3h2.8c0-1.5,0.2-2.7,0.6-3.6c0.4-0.9,0.9-1.6,1.5-2.1c0.6-0.5,1.4-0.8,2.1-1
			c0.8-0.2,1.6-0.3,2.4-0.3c1.8,0,3.2,0.5,4.2,1.4c1.1,1,1.6,2.4,1.6,4.3H290.7z"/>
		<path class="st0" d="M304,304.4v0.3h-12.9v-0.3h2.8v-18.4h-2.8v-0.3c0.7,0,1.5,0,2.5,0c1,0,1.9-0.1,2.9-0.1c1-0.1,1.9-0.1,2.7-0.2
			c0.9-0.1,1.5-0.2,2.1-0.4v19.4H304z M301.4,280c-0.2-0.3-0.5-0.6-0.9-0.9c-0.4-0.3-0.8-0.5-1.3-0.6c-0.5-0.1-1-0.2-1.6-0.2
			c-0.6,0-1.1,0.1-1.6,0.2c-0.5,0.1-0.9,0.3-1.3,0.6s-0.7,0.6-0.9,0.9c-0.2,0.3-0.3,0.7-0.3,1.1c0,0.4,0.1,0.8,0.3,1.1
			c0.2,0.3,0.5,0.6,0.9,0.9s0.8,0.5,1.3,0.6c0.5,0.1,1,0.2,1.6,0.2c0.6,0,1.1-0.1,1.6-0.2c0.5-0.1,0.9-0.3,1.3-0.6
			c0.4-0.3,0.7-0.6,0.9-0.9c0.2-0.3,0.3-0.7,0.3-1.1C301.7,280.7,301.6,280.3,301.4,280z"/>
		<path class="st0" d="M312.9,295.6c0,1,0,1.9,0.1,2.9c0.1,1,0.3,1.9,0.7,2.6c0.4,0.8,0.9,1.4,1.6,1.9c0.7,0.5,1.7,0.7,2.9,0.7
			c0.9,0,1.7-0.2,2.3-0.5c0.7-0.3,1.3-0.7,1.8-1.2c0.5-0.5,0.9-1.1,1.3-1.8s0.7-1.4,0.9-2.1l0.4,0c-0.3,1-0.7,1.9-1.1,2.7
			c-0.4,0.8-0.9,1.6-1.6,2.2c-0.7,0.6-1.5,1.1-2.5,1.4c-1,0.3-2.2,0.5-3.6,0.5c-0.7,0-1.2,0-1.8,0s-1-0.1-1.6-0.2
			c-0.5-0.1-1.1-0.3-1.7-0.6c-0.6-0.3-1.3-0.7-2.1-1.2c-1-0.6-1.9-1.6-2.6-3s-1.1-3-1.1-4.9c0-1.5,0.2-2.8,0.6-3.9s0.9-2,1.6-2.7
			c0.7-0.7,1.4-1.3,2.2-1.8c0.8-0.4,1.6-0.8,2.4-1c0.8-0.2,1.6-0.4,2.3-0.5c0.7-0.1,1.3-0.1,1.8-0.1c1,0,2.1,0.1,3.2,0.3
			c1.1,0.2,2.1,0.5,3,1c0.9,0.5,1.6,1.2,2.2,2c0.6,0.8,0.9,1.9,0.9,3.2c0,0.8-0.2,1.4-0.7,1.8c-0.5,0.4-1,0.8-1.7,1
			c-0.7,0.2-1.4,0.4-2.2,0.4c-0.8,0-1.5,0.1-2.2,0.1h-5.9V295.6z M315.5,285.6c-0.6,0-1.1,0.3-1.4,0.7c-0.3,0.5-0.6,1.1-0.8,1.8
			c-0.2,0.7-0.3,1.5-0.3,2.3s-0.1,1.6-0.1,2.4v1.9h3.2c0.1,0,0.4,0,0.8-0.1c0.4,0,0.7-0.2,1-0.4c0.1-0.1,0.3-0.3,0.3-0.6
			c0.1-0.2,0.1-0.5,0.2-0.7c0-0.2,0.1-0.4,0.1-0.6c0-0.2,0-0.3,0-0.4c0-1.3-0.1-2.4-0.2-3.2c-0.2-0.8-0.4-1.5-0.6-1.9
			c-0.3-0.5-0.6-0.8-0.9-1c-0.3-0.2-0.7-0.3-1-0.3H315.5z"/>
		<path class="st0" d="M339.6,286.2c0.3,0,0.7,0,1.2,0.1c0.5,0.1,0.9,0.3,1.3,0.5c0.4,0.3,0.8,0.7,1.1,1.2c0.3,0.5,0.4,1.2,0.4,2
			c0,0.7-0.1,1.4-0.3,1.9c-0.2,0.5-0.5,1-0.9,1.3s-0.7,0.6-1.2,0.8c-0.4,0.2-0.8,0.3-1.2,0.3c-0.9,0-1.4-0.3-1.8-0.8
			s-0.5-1.3-0.5-2.2c0-0.3,0-0.7,0.1-1s0.2-0.6,0.3-0.9c0.1-0.3,0.2-0.5,0.3-0.7c0.1-0.2,0.1-0.4,0.1-0.5c0-0.7-0.2-1-0.5-1
			c-0.5,0-0.9,0.2-1.2,0.6l-0.3,0.5c-0.3,0.4-0.4,1-0.5,2c-0.1,1-0.1,2.1-0.1,3.4v10.7h2.8v0.3h-12.7v-0.3h2.8v-18.4h-2.8v-0.3
			c0.7,0,1.5,0,2.4,0c0.9,0,1.9-0.1,2.8-0.1c1-0.1,1.8-0.1,2.7-0.2c0.8-0.1,1.5-0.2,2-0.4v4c0.1-0.2,0.2-0.5,0.3-0.7
			s0.3-0.5,0.5-0.7l0.1-0.1c0.5-0.5,1-0.9,1.4-1C338.8,286.3,339.2,286.2,339.6,286.2z"/>
		<path class="st0" d="M377.4,285.8v0.3H377c-0.5,0-0.9,0-1.2,0.1s-0.6,0.2-0.9,0.4c-0.4,0.3-0.7,0.6-0.9,1c-0.2,0.4-0.3,0.8-0.4,1
			l-4,16.1h-5.4c-1.3-3.5-2.5-6.6-3.7-9.3c-0.5-1.2-1-2.3-1.5-3.4c-0.5-1.1-1-2.1-1.5-3c-0.5-0.9-0.9-1.6-1.3-2.1
			c-0.4-0.5-0.7-0.8-1-0.8h-0.3v-0.3h1.1c1.4,0,2.6,0.1,3.6,0.2c1,0.1,1.8,0.3,2.5,0.7c0.7,0.3,1.3,0.7,1.8,1.3
			c0.5,0.5,0.9,1.2,1.3,2l4.8,11.3l3.1-12.5c0.1-0.5,0.2-0.9,0.2-1.1c0-0.3,0-0.5-0.1-0.6c-0.1-0.1-0.1-0.2-0.2-0.3
			c-0.1-0.3-0.4-0.4-0.6-0.5c-0.3-0.1-0.5-0.1-0.8-0.1h-0.7v-0.3H377.4z"/>
		<path class="st0" d="M394.2,287.3c1,0.7,1.9,1.7,2.6,3c0.7,1.3,1.1,3,1.1,4.9c0,1.9-0.4,3.5-1.1,4.9s-1.6,2.3-2.6,3
			c-0.8,0.5-1.4,0.9-2,1.2c-0.6,0.3-1.1,0.5-1.5,0.6c-0.5,0.1-1,0.2-1.4,0.2c-0.5,0-1,0-1.7,0h-0.4c-0.7,0-1.2,0-1.7,0
			c-0.5,0-1-0.1-1.5-0.2c-0.5-0.1-1.1-0.3-1.6-0.6c-0.6-0.3-1.3-0.7-2-1.2c-1-0.6-1.9-1.6-2.6-3c-0.7-1.3-1.1-3-1.1-4.9
			c0-1.9,0.4-3.5,1.1-4.9c0.7-1.3,1.6-2.3,2.6-3c0.8-0.5,1.5-0.9,2-1.2c0.6-0.3,1.1-0.5,1.6-0.6c0.5-0.1,1-0.2,1.4-0.2
			c0.5,0,1,0,1.7,0h0.6c0.7,0,1.2,0,1.7,0c0.5,0,1,0.1,1.4,0.2c0.5,0.1,1,0.3,1.5,0.6C392.8,286.4,393.5,286.8,394.2,287.3z
			 M389.3,303.6c0.2-0.3,0.4-0.8,0.6-1.3c0.1-0.6,0.3-1.2,0.3-2s0.1-1.6,0.2-2.4c0-0.9,0-1.8,0-2.8s0-1.9-0.1-2.8
			c0-0.9-0.1-1.7-0.2-2.4c-0.1-0.7-0.2-1.4-0.4-2s-0.4-1-0.7-1.3c-0.5-0.6-0.9-0.9-1.2-1c-0.3-0.1-0.5-0.1-0.6-0.1
			c-0.1,0-0.4,0-0.7,0.1c-0.3,0.1-0.7,0.4-1.2,1c-0.3,0.3-0.5,0.7-0.7,1.3s-0.3,1.2-0.4,2c-0.1,0.7-0.2,1.6-0.2,2.4
			c0,0.9,0,1.8,0,2.8s0,1.9,0,2.8c0,0.9,0.1,1.7,0.2,2.4c0.1,0.7,0.2,1.4,0.4,2s0.4,1,0.7,1.3c0.3,0.4,0.7,0.6,1,0.8
			c0.4,0.2,0.6,0.3,0.8,0.3h0.3C388.2,304.7,388.8,304.4,389.3,303.6z"/>
		<path class="st0" d="M413.5,293.6c0.3,0.2,0.7,0.5,1.1,0.8c0.4,0.3,0.8,0.7,1.1,1.2c0.3,0.4,0.6,0.9,0.8,1.4
			c0.2,0.5,0.3,1.1,0.3,1.7c0,1-0.2,1.8-0.6,2.6c-0.4,0.8-1,1.4-1.8,2c-0.8,0.6-1.7,1-2.7,1.3s-2.2,0.5-3.4,0.5
			c-1,0-1.9-0.2-2.9-0.5c-1-0.3-1.9-0.7-2.8-1.2c-0.1,0-0.2-0.1-0.3-0.1c-0.4,0-0.7,0.1-1,0.2c-0.3,0.1-0.5,0.3-0.7,0.5
			c-0.2,0.2-0.4,0.5-0.6,0.7h-0.4v-8.6h0.4c0.1,0.6,0.2,1.1,0.3,1.7c0.1,0.5,0.3,1,0.5,1.6c0.2,0.5,0.4,1.1,0.7,1.6
			c0.4,0.6,0.7,1.1,1.1,1.6c0.4,0.5,0.8,0.8,1.3,1.1c0.6,0.3,1.2,0.6,1.9,0.7c0.7,0.2,1.4,0.2,2,0.2c0.5,0,0.9,0,1.4,0
			c0.5,0,0.9-0.1,1.3-0.2c0.4-0.1,0.7-0.3,1-0.5c0.3-0.2,0.4-0.5,0.4-0.8c0-0.6-0.3-1.1-0.9-1.6c-0.6-0.5-1.3-1-2.1-1.5
			c-0.8-0.5-1.8-1-2.7-1.5c-1-0.5-1.9-1.1-2.7-1.8c-0.6-0.4-1.1-0.9-1.5-1.3c-0.4-0.4-0.8-0.8-1.1-1.2c-0.3-0.4-0.5-0.9-0.7-1.4
			s-0.2-1.1-0.2-1.7c0-1,0.2-1.9,0.6-2.6c0.4-0.7,0.9-1.3,1.6-1.8c0.6-0.5,1.4-0.8,2.1-1c0.8-0.2,1.5-0.3,2.2-0.3
			c0.6,0,1.1,0,1.5,0.1c0.4,0.1,0.8,0.2,1.2,0.3c0.4,0.1,0.8,0.3,1.3,0.6c0.5,0.2,1.1,0.5,1.8,0.8c0,0,0.1,0,0.3,0
			c0.3,0,0.6-0.1,0.9-0.2c0.3-0.1,0.5-0.3,0.6-0.5c0.2-0.2,0.3-0.5,0.4-0.7h0.4l0.8,6.9h-0.4c-0.1-0.3-0.2-0.6-0.3-1
			c-0.1-0.3-0.3-0.7-0.5-1.1c-0.2-0.4-0.5-0.8-0.8-1.3c-0.2-0.2-0.4-0.5-0.8-0.9c-0.4-0.4-0.8-0.7-1.3-1c-0.2-0.1-0.4-0.2-0.7-0.4
			c-0.3-0.2-0.6-0.3-1-0.5s-0.8-0.3-1.2-0.4c-0.4-0.1-0.9-0.2-1.3-0.2c-0.2,0-0.5,0-0.8,0s-0.6,0.1-0.8,0.2
			c-0.3,0.1-0.5,0.2-0.6,0.4c-0.2,0.2-0.3,0.4-0.3,0.6c0,0.9,0.3,1.5,0.8,2c0.5,0.5,1.2,0.9,2.1,1.4c1,0.5,2,1,3,1.6
			C411.8,292.5,412.7,293,413.5,293.6z"/>
		<path class="st0" d="M447.9,286.4c0.9,0.5,1.6,1.1,2.1,1.8c0.5,0.7,1,1.4,1.3,2.1c0.3,0.8,0.5,1.5,0.6,2.4
			c0.1,0.8,0.2,1.6,0.2,2.4c0,0.8-0.1,1.6-0.2,2.4c-0.1,0.8-0.3,1.6-0.6,2.4c-0.3,0.8-0.7,1.5-1.3,2.1c-0.6,0.7-1.3,1.2-2.1,1.8
			c-0.8,0.4-1.5,0.8-2.3,1c-0.8,0.2-1.6,0.3-2.3,0.3c-0.6,0-1.2-0.1-1.8-0.2c-0.2,0-0.5-0.1-0.7-0.2c-0.2-0.1-0.4-0.2-0.6-0.3
			c-0.2-0.1-0.4-0.2-0.5-0.4c-0.3-0.3-0.6-0.6-0.7-0.8c-0.2-0.2-0.3-0.4-0.4-0.6v8.3h2.8v0.3h-12.3v-0.3h2.8v-25.1h-2.8v-0.3h2.8
			c0.9,0,1.8-0.1,2.6-0.2c0.7,0,1.4-0.1,2.2-0.2c0.8-0.1,1.4-0.2,1.9-0.4v3.2c0.1-0.2,0.3-0.4,0.5-0.6s0.4-0.5,0.7-0.8
			c0.4-0.4,1-0.7,1.7-1c0.7-0.2,1.5-0.3,2.4-0.3c0.7,0,1.4,0.1,2.1,0.3C446.5,285.7,447.2,286,447.9,286.4z M443.5,302.4
			c0.4-0.7,0.7-1.7,0.8-3c0.1-1.3,0.1-2.7,0.1-4.3c0-1.6,0-3.1-0.1-4.4c-0.1-1.3-0.3-2.4-0.8-3c-0.2-0.4-0.6-0.7-0.9-1
			c-0.4-0.3-0.8-0.5-1.2-0.5c-0.2,0-0.5,0-0.8,0.1s-0.6,0.3-0.9,0.5c-0.3,0.2-0.5,0.5-0.6,0.8c-0.1,0.3-0.3,0.6-0.4,1
			c-0.1,0.4-0.2,0.9-0.3,1.3c0,0.5-0.1,0.9-0.1,1.4v8.2c0,0.9,0.1,1.7,0.3,2.4c0.1,0.3,0.2,0.6,0.3,0.9c0.1,0.3,0.3,0.5,0.5,0.7
			c0.5,0.4,0.9,0.7,1.4,0.7c0.3,0,0.6-0.1,0.8-0.2c0.3-0.1,0.5-0.3,0.7-0.5c0.2-0.2,0.4-0.4,0.6-0.6
			C443.3,302.7,443.4,302.5,443.5,302.4z"/>
		<path class="st0" d="M466.1,286.2c0.3,0,0.7,0,1.2,0.1c0.5,0.1,0.9,0.3,1.3,0.5c0.4,0.3,0.8,0.7,1.1,1.2c0.3,0.5,0.4,1.2,0.4,2
			c0,0.7-0.1,1.4-0.3,1.9c-0.2,0.5-0.5,1-0.9,1.3s-0.7,0.6-1.2,0.8c-0.4,0.2-0.8,0.3-1.2,0.3c-0.9,0-1.4-0.3-1.8-0.8
			s-0.5-1.3-0.5-2.2c0-0.3,0-0.7,0.1-1s0.2-0.6,0.3-0.9c0.1-0.3,0.2-0.5,0.3-0.7s0.1-0.4,0.1-0.5c0-0.7-0.2-1-0.5-1
			c-0.5,0-0.9,0.2-1.2,0.6l-0.3,0.5c-0.3,0.4-0.4,1-0.5,2c-0.1,1-0.1,2.1-0.1,3.4v10.7h2.8v0.3h-12.7v-0.3h2.8v-18.4h-2.8v-0.3
			c0.7,0,1.5,0,2.4,0s1.9-0.1,2.8-0.1c1-0.1,1.8-0.1,2.7-0.2c0.8-0.1,1.5-0.2,2-0.4v4c0.1-0.2,0.2-0.5,0.3-0.7
			c0.1-0.2,0.3-0.5,0.5-0.7l0.1-0.1c0.5-0.5,1-0.9,1.4-1C465.2,286.3,465.7,286.2,466.1,286.2z"/>
		<path class="st0" d="M489.3,287.3c1,0.7,1.9,1.7,2.6,3c0.7,1.3,1.1,3,1.1,4.9c0,1.9-0.4,3.5-1.1,4.9s-1.6,2.3-2.6,3
			c-0.8,0.5-1.4,0.9-2,1.2c-0.6,0.3-1.1,0.5-1.5,0.6c-0.5,0.1-1,0.2-1.4,0.2c-0.5,0-1,0-1.7,0h-0.4c-0.7,0-1.2,0-1.7,0
			c-0.5,0-1-0.1-1.5-0.2c-0.5-0.1-1.1-0.3-1.6-0.6c-0.6-0.3-1.3-0.7-2-1.2c-1-0.6-1.9-1.6-2.6-3c-0.7-1.3-1.1-3-1.1-4.9
			c0-1.9,0.4-3.5,1.1-4.9c0.7-1.3,1.6-2.3,2.6-3c0.8-0.5,1.5-0.9,2-1.2c0.6-0.3,1.1-0.5,1.6-0.6c0.5-0.1,1-0.2,1.4-0.2
			c0.5,0,1,0,1.7,0h0.6c0.7,0,1.2,0,1.7,0c0.5,0,1,0.1,1.4,0.2c0.5,0.1,1,0.3,1.5,0.6C487.8,286.4,488.5,286.8,489.3,287.3z
			 M484.4,303.6c0.2-0.3,0.4-0.8,0.6-1.3c0.1-0.6,0.3-1.2,0.3-2s0.1-1.6,0.2-2.4c0-0.9,0-1.8,0-2.8s0-1.9-0.1-2.8
			c0-0.9-0.1-1.7-0.2-2.4c-0.1-0.7-0.2-1.4-0.4-2s-0.4-1-0.7-1.3c-0.5-0.6-0.9-0.9-1.2-1c-0.3-0.1-0.5-0.1-0.6-0.1
			c-0.1,0-0.4,0-0.7,0.1c-0.3,0.1-0.7,0.4-1.2,1c-0.3,0.3-0.5,0.7-0.7,1.3s-0.3,1.2-0.4,2c-0.1,0.7-0.2,1.6-0.2,2.4
			c0,0.9,0,1.8,0,2.8s0,1.9,0,2.8c0,0.9,0.1,1.7,0.2,2.4c0.1,0.7,0.2,1.4,0.4,2s0.4,1,0.7,1.3c0.3,0.4,0.7,0.6,1,0.8
			c0.4,0.2,0.6,0.3,0.8,0.3h0.3C483.3,304.7,483.9,304.4,484.4,303.6z"/>
		<path class="st0" d="M494.5,285.8c0.7,0,1.5,0,2.5,0s2-0.1,2.9-0.1c1-0.1,1.9-0.1,2.8-0.2c0.9-0.1,1.6-0.2,2.1-0.4v16.5
			c0,0.6,0,1.1,0,1.7c0,0.5-0.1,1.1-0.2,1.6c0,0.3-0.1,0.5-0.2,0.8c-0.1,0.3-0.2,0.5-0.4,0.7c-0.3,0.5-0.7,0.9-1.2,1.2
			c-0.5,0.3-1,0.5-1.6,0.7c-0.6,0.1-1.4,0.2-2.3,0.2c-0.5,0-0.9-0.1-1.4-0.2c-0.4-0.1-0.9-0.3-1.3-0.5c-0.8-0.4-1.4-1-1.9-1.8
			c-0.3-0.5-0.4-1-0.4-1.6c0-0.7,0.3-1.4,0.8-1.9c0.6-0.5,1.2-0.8,1.9-0.8c0.7,0,1.4,0.3,1.9,0.8c0.6,0.6,0.8,1.2,0.8,1.9
			c0,0.8-0.3,1.4-0.8,1.9c-0.2,0.2-0.4,0.3-0.6,0.5c-0.2,0.2-0.3,0.4-0.3,0.7c0,0.2,0.2,0.4,0.5,0.5c0.1,0,0.2,0,0.2,0s0.2,0,0.2,0
			c0.4,0,0.7-0.1,1.1-0.2c0.3-0.1,0.6-0.3,0.9-0.6c0.3-0.4,0.6-0.9,0.7-1.4c0.1-0.5,0.2-1.1,0.2-1.6c0-0.6-0.1-1.1-0.3-1.6
			c-0.2-0.5-0.5-0.9-0.9-1.3c-0.4-0.4-0.9-0.6-1.4-0.8c-0.5-0.2-1.1-0.2-1.6-0.2v-14.1h-2.8V285.8z M501,283.9
			c-0.6,0-1.1-0.1-1.6-0.2c-0.5-0.1-0.9-0.3-1.3-0.6s-0.7-0.6-0.9-0.9c-0.2-0.3-0.3-0.7-0.3-1.1c0-0.4,0.1-0.8,0.3-1.1
			c0.2-0.3,0.5-0.6,0.9-0.9s0.8-0.5,1.3-0.6c0.5-0.1,1-0.2,1.6-0.2s1.1,0.1,1.6,0.2s0.9,0.3,1.3,0.6c0.4,0.3,0.7,0.6,0.9,0.9
			c0.2,0.3,0.3,0.7,0.3,1.1c0,0.4-0.1,0.8-0.3,1.1c-0.2,0.3-0.5,0.6-0.9,0.9c-0.4,0.3-0.8,0.5-1.3,0.6
			C502.1,283.9,501.6,283.9,501,283.9z"/>
		<path class="st0" d="M515.3,295.6c0,1,0,1.9,0.1,2.9c0.1,1,0.3,1.9,0.7,2.6c0.4,0.8,0.9,1.4,1.6,1.9c0.7,0.5,1.7,0.7,2.9,0.7
			c0.9,0,1.7-0.2,2.3-0.5c0.7-0.3,1.3-0.7,1.8-1.2c0.5-0.5,0.9-1.1,1.3-1.8s0.7-1.4,0.9-2.1l0.4,0c-0.3,1-0.7,1.9-1.1,2.7
			c-0.4,0.8-0.9,1.6-1.6,2.2c-0.7,0.6-1.5,1.1-2.5,1.4c-1,0.3-2.2,0.5-3.6,0.5c-0.7,0-1.2,0-1.8,0s-1-0.1-1.6-0.2
			c-0.5-0.1-1.1-0.3-1.7-0.6c-0.6-0.3-1.3-0.7-2.1-1.2c-1-0.6-1.9-1.6-2.6-3s-1.1-3-1.1-4.9c0-1.5,0.2-2.8,0.6-3.9s0.9-2,1.6-2.7
			c0.7-0.7,1.4-1.3,2.2-1.8c0.8-0.4,1.6-0.8,2.4-1c0.8-0.2,1.6-0.4,2.3-0.5c0.7-0.1,1.3-0.1,1.8-0.1c1,0,2.1,0.1,3.2,0.3
			c1.1,0.2,2.1,0.5,3,1c0.9,0.5,1.6,1.2,2.2,2c0.6,0.8,0.9,1.9,0.9,3.2c0,0.8-0.2,1.4-0.7,1.8c-0.5,0.4-1,0.8-1.7,1
			c-0.7,0.2-1.4,0.4-2.2,0.4c-0.8,0-1.5,0.1-2.2,0.1h-5.9V295.6z M518,285.6c-0.6,0-1.1,0.3-1.4,0.7c-0.3,0.5-0.6,1.1-0.8,1.8
			c-0.2,0.7-0.3,1.5-0.3,2.3s-0.1,1.6-0.1,2.4v1.9h3.2c0.1,0,0.4,0,0.8-0.1c0.4,0,0.7-0.2,1-0.4c0.1-0.1,0.3-0.3,0.3-0.6
			c0.1-0.2,0.1-0.5,0.2-0.7c0-0.2,0.1-0.4,0.1-0.6s0-0.3,0-0.4c0-1.3-0.1-2.4-0.2-3.2c-0.2-0.8-0.4-1.5-0.6-1.9
			c-0.3-0.5-0.6-0.8-0.9-1s-0.7-0.3-1-0.3H518z"/>
		<path class="st0" d="M538.2,301.8c0.2,0.7,0.6,1.2,1,1.6c0.4,0.4,0.8,0.7,1.2,0.8c0.4,0.2,0.9,0.2,1.3,0.2v0.3h-4.1
			c-1.2,0-2.2-0.1-3-0.3c-0.8-0.2-1.5-0.5-2-0.9c-0.5-0.4-0.9-1-1.1-1.7c-0.2-0.7-0.3-1.6-0.3-2.7v-0.8v-12.4h-2.8v-0.3h1.2
			c1,0,2-0.3,3-0.8c1-0.5,1.8-1.1,2.5-1.9c0.7-0.8,1.3-1.6,1.8-2.4c0.5-0.8,0.7-1.6,0.7-2.2h0.3v7.3h3.2v0.3h-3.2v13.2
			C537.8,300.3,537.9,301.1,538.2,301.8z"/>
		<path class="st0" d="M556.2,293.6c0.3,0.2,0.7,0.5,1.1,0.8c0.4,0.3,0.8,0.7,1.1,1.2c0.3,0.4,0.6,0.9,0.8,1.4
			c0.2,0.5,0.3,1.1,0.3,1.7c0,1-0.2,1.8-0.6,2.6c-0.4,0.8-1,1.4-1.8,2c-0.8,0.6-1.7,1-2.7,1.3s-2.2,0.5-3.4,0.5
			c-1,0-1.9-0.2-2.9-0.5c-1-0.3-1.9-0.7-2.8-1.2c-0.1,0-0.2-0.1-0.3-0.1c-0.4,0-0.7,0.1-1,0.2c-0.3,0.1-0.5,0.3-0.7,0.5
			c-0.2,0.2-0.4,0.5-0.6,0.7h-0.4v-8.6h0.4c0.1,0.6,0.2,1.1,0.3,1.7c0.1,0.5,0.3,1,0.5,1.6c0.2,0.5,0.4,1.1,0.7,1.6
			c0.4,0.6,0.7,1.1,1.1,1.6c0.4,0.5,0.8,0.8,1.3,1.1c0.6,0.3,1.2,0.6,1.9,0.7c0.7,0.2,1.4,0.2,2,0.2c0.5,0,0.9,0,1.4,0
			c0.5,0,0.9-0.1,1.3-0.2c0.4-0.1,0.7-0.3,1-0.5c0.3-0.2,0.4-0.5,0.4-0.8c0-0.6-0.3-1.1-0.9-1.6c-0.6-0.5-1.3-1-2.1-1.5
			c-0.8-0.5-1.8-1-2.7-1.5c-1-0.5-1.9-1.1-2.7-1.8c-0.6-0.4-1.1-0.9-1.5-1.3c-0.4-0.4-0.8-0.8-1.1-1.2c-0.3-0.4-0.5-0.9-0.7-1.4
			s-0.2-1.1-0.2-1.7c0-1,0.2-1.9,0.6-2.6c0.4-0.7,0.9-1.3,1.6-1.8c0.6-0.5,1.4-0.8,2.1-1c0.8-0.2,1.5-0.3,2.2-0.3
			c0.6,0,1.1,0,1.5,0.1c0.4,0.1,0.8,0.2,1.2,0.3c0.4,0.1,0.8,0.3,1.3,0.6c0.5,0.2,1.1,0.5,1.8,0.8c0,0,0.1,0,0.3,0
			c0.3,0,0.6-0.1,0.9-0.2c0.3-0.1,0.5-0.3,0.6-0.5c0.2-0.2,0.3-0.5,0.4-0.7h0.4l0.8,6.9h-0.4c-0.1-0.3-0.2-0.6-0.3-1
			c-0.1-0.3-0.3-0.7-0.5-1.1c-0.2-0.4-0.5-0.8-0.8-1.3c-0.2-0.2-0.4-0.5-0.8-0.9c-0.4-0.4-0.8-0.7-1.3-1c-0.2-0.1-0.4-0.2-0.7-0.4
			c-0.3-0.2-0.6-0.3-1-0.5s-0.8-0.3-1.2-0.4c-0.4-0.1-0.9-0.2-1.3-0.2c-0.2,0-0.5,0-0.8,0s-0.6,0.1-0.8,0.2
			c-0.3,0.1-0.5,0.2-0.6,0.4c-0.2,0.2-0.3,0.4-0.3,0.6c0,0.9,0.3,1.5,0.8,2c0.5,0.5,1.2,0.9,2.1,1.4c1,0.5,2,1,3,1.6
			C554.5,292.5,555.4,293,556.2,293.6z"/>
	</g>
</g>
<g>
	<path class="st0" d="M107.6,93.2h-23l0.4,49.9h20v1.6H85H48.7h-0.4H28.5v-1.6h19.8l-0.2-49.9H1L63.2,4.9H85v85.6h23v2.6H107.6z
		 M48.5,90.6l0.2-60.1L7.9,88.2c-0.4,0.7-0.5,1.2-0.3,1.7c0.2,0.5,0.6,0.7,1.3,0.7H48.5z"/>
</g>
<g>
	<path class="st1" d="M179.3,107.3c2.3,0.3,4.8,0.8,7.5,1.5s5.2,1.7,7.5,3.1c2.3,1.4,4.3,3.2,5.8,5.3c1.6,2.2,2.3,4.9,2.3,8.1
		c0,2.3-0.3,4.4-1,6.2c-0.7,1.8-1.5,3.3-2.6,4.6c-1.1,1.3-2.3,2.4-3.7,3.3s-2.8,1.6-4.2,2.2c-3.3,1.3-7.1,2.1-11.4,2.3h-57.6v-0.8
		h10V75h-10v-0.8h52.7c3.9,0.2,7.5,0.9,10.7,2c1.3,0.5,2.6,1.2,3.9,1.9c1.3,0.7,2.4,1.6,3.4,2.7c1,1.1,1.8,2.4,2.4,3.8
		c0.6,1.5,0.9,3.2,0.9,5.1c0,2-0.4,3.8-1.2,5.4c-0.8,1.6-1.8,3-3,4.3c-1.2,1.3-2.5,2.4-3.9,3.3c-1.4,0.9-2.7,1.7-4,2.3
		c-1.3,0.6-2.3,1-3.2,1.3c-0.9,0.3-1.4,0.4-1.5,0.4V107.3z M154.9,75v31.8h1.1c3.5-0.1,6.7-0.7,9.4-1.8c1.2-0.5,2.4-1,3.5-1.7
		c1.1-0.7,2.1-1.6,3-2.6c0.9-1.1,1.6-2.3,2.1-3.7c0.5-1.4,0.8-3,0.8-4.9v-2.2c0-3.7-0.7-6.5-2.2-8.5c-1.5-2-3.1-3.5-4.9-4.4
		c-2.1-1.1-4.5-1.7-7.2-1.9H154.9z M159.7,143.3c3.5-0.2,6.5-0.9,9.2-2.2c1.1-0.5,2.3-1.2,3.4-2.1c1.1-0.9,2.1-1.9,3-3.2
		c0.9-1.3,1.6-2.7,2.1-4.4c0.5-1.7,0.8-3.7,0.8-5.9c0-2.9-0.5-5.4-1.3-7.4c-0.9-2-2-3.7-3.3-5c-1.3-1.3-2.8-2.4-4.3-3.1
		c-1.6-0.7-3-1.3-4.4-1.6c-1.4-0.3-2.5-0.5-3.4-0.6c-0.9-0.1-1.4-0.1-1.5-0.1h-4.9v35.8H159.7z"/>
	<path class="st1" d="M254.5,96.6c2.8,1.8,5.2,4.5,7.1,8.1c2,3.6,2.9,8,2.9,13.2s-1,9.6-2.9,13.3c-2,3.7-4.3,6.4-7.1,8.1
		c-2.1,1.4-3.9,2.5-5.4,3.2c-1.5,0.7-2.9,1.3-4.2,1.6s-2.6,0.6-3.9,0.6c-1.3,0.1-2.8,0.1-4.6,0.1h-1c-1.8,0-3.4,0-4.7-0.1
		c-1.4-0.1-2.7-0.3-4.1-0.6s-2.9-0.9-4.4-1.6c-1.6-0.7-3.4-1.8-5.5-3.2c-2.8-1.7-5.2-4.4-7.1-8.1c-2-3.7-2.9-8.1-2.9-13.3
		s1-9.6,2.9-13.2c2-3.6,4.3-6.3,7.1-8.1c2.1-1.4,4-2.5,5.5-3.2c1.5-0.7,2.9-1.3,4.2-1.6c1.3-0.4,2.6-0.6,3.9-0.6
		c1.3-0.1,2.8-0.1,4.6-0.1h1.6c1.8,0,3.3,0,4.6,0.1c1.3,0.1,2.6,0.3,3.9,0.6c1.3,0.4,2.7,0.9,4.2,1.6
		C250.6,94.1,252.4,95.2,254.5,96.6z M241.1,141.1c0.6-0.9,1.1-2.1,1.5-3.6c0.4-1.6,0.7-3.4,0.9-5.4c0.2-2,0.4-4.2,0.4-6.6
		c0.1-2.4,0.1-4.9,0.1-7.5c0-2.6-0.1-5.1-0.2-7.5s-0.3-4.6-0.5-6.6c-0.2-2-0.6-3.8-1-5.3c-0.5-1.5-1.1-2.7-1.8-3.5
		c-1.5-1.6-2.6-2.5-3.3-2.8c-0.8-0.3-1.3-0.4-1.7-0.4s-1,0.1-1.8,0.4c-0.8,0.3-1.9,1.2-3.3,2.8c-0.7,0.8-1.3,2-1.8,3.5
		c-0.5,1.5-0.8,3.3-1.1,5.3c-0.3,2-0.4,4.2-0.5,6.6c-0.1,2.4-0.1,4.9-0.1,7.5c0,2.6,0,5.1,0.1,7.5c0.1,2.4,0.2,4.6,0.5,6.6
		c0.3,2,0.6,3.8,1.1,5.3c0.5,1.5,1.1,2.7,1.8,3.6c0.9,1,1.9,1.8,2.8,2.3c1,0.5,1.7,0.8,2.2,0.8h0.8
		C238.1,144.1,239.7,143.1,241.1,141.1z"/>
	<path class="st1" d="M333.4,144.1h-8.8c-3.3,0-6-0.4-8.2-1.1c-2.2-0.8-4-1.8-5.4-3.2c-1.4-1.4-2.4-2.9-3-4.7
		c-0.6-1.8-0.9-3.7-0.9-5.8v-27.8c0-1.3-0.1-2.7-0.4-4c-0.3-1.3-0.8-2.5-1.5-3.5c-0.4-0.5-0.9-0.8-1.5-0.9c-0.6-0.2-1.2-0.2-1.8-0.2
		s-1.2,0.2-1.7,0.5c-0.5,0.4-1,0.8-1.5,1.3c-0.6,0.6-1.1,1.4-1.5,2.5c-0.4,1.1-0.7,2.2-1,3.4c-0.3,1.2-0.5,2.4-0.6,3.6
		c-0.1,1.2-0.2,2.2-0.2,3v36.1h7.5v0.8h-35.4v-0.8h7.5v-50h-7.6v-0.8c1.9,0,4.1,0,6.8-0.1c2.7-0.1,5.3-0.2,8-0.3
		c2.7-0.2,5.2-0.4,7.5-0.6c2.4-0.3,4.2-0.6,5.6-1V98c0.5-1.1,1.1-2.1,1.7-2.8c0.6-0.7,1.4-1.5,2.4-2.2c1.6-1.3,3.3-2.3,5-2.9
		c1.8-0.6,3.6-0.9,5.6-0.9c2,0,4.1,0.2,6.4,0.5c2.3,0.3,4.3,1.1,6,2.2c1.7,1.1,3.1,2.7,4,4.7c0.3,0.7,0.6,1.5,0.8,2.2
		c0.2,0.8,0.3,1.5,0.3,2.3v29.4c0,3.9,0.5,7,1.3,9.3c0.9,2.3,2.4,3.4,4.6,3.4V144.1z"/>
	<path class="st1" d="M400.8,144.1H392c-3.3,0-6-0.4-8.2-1.1c-2.2-0.8-4-1.8-5.4-3.2c-1.4-1.4-2.4-2.9-3-4.7
		c-0.6-1.8-0.9-3.7-0.9-5.8v-27.8c0-1.3-0.2-2.7-0.4-4c-0.3-1.3-0.8-2.5-1.5-3.5c-0.4-0.5-0.9-0.8-1.5-0.9c-0.6-0.2-1.2-0.2-1.8-0.2
		s-1.2,0.2-1.7,0.5c-0.5,0.4-1,0.8-1.5,1.3c-0.6,0.6-1.1,1.4-1.5,2.5c-0.4,1.1-0.7,2.2-1,3.4c-0.3,1.2-0.5,2.4-0.6,3.6
		c-0.1,1.2-0.2,2.2-0.2,3v36.1h7.5v0.8h-35.4v-0.8h7.5v-50h-7.6v-0.8c1.9,0,4.1,0,6.8-0.1c2.7-0.1,5.3-0.2,8-0.3
		c2.7-0.2,5.2-0.4,7.5-0.6c2.4-0.3,4.2-0.6,5.6-1V98c0.5-1.1,1.1-2.1,1.7-2.8c0.6-0.7,1.4-1.5,2.4-2.2c1.6-1.3,3.3-2.3,5-2.9
		c1.8-0.6,3.6-0.9,5.6-0.9s4.1,0.2,6.4,0.5c2.3,0.3,4.3,1.1,6,2.2c1.7,1.1,3.1,2.7,4,4.7c0.3,0.7,0.6,1.5,0.8,2.2
		c0.2,0.8,0.3,1.5,0.3,2.3v29.4c0,3.9,0.5,7,1.3,9.3c0.9,2.3,2.4,3.4,4.6,3.4V144.1z"/>
	<path class="st1" d="M425.2,119.2c0,2.6,0.1,5.2,0.4,7.9c0.3,2.7,0.9,5,1.9,7.1c1,2.1,2.4,3.8,4.3,5.1c1.9,1.3,4.5,2,7.8,2
		c2.4,0,4.5-0.4,6.3-1.2c1.8-0.8,3.4-1.9,4.8-3.3c1.4-1.4,2.5-3,3.5-4.8c1-1.8,1.8-3.7,2.5-5.7l1,0.1c-0.9,2.7-1.9,5.1-3,7.4
		c-1.1,2.3-2.5,4.2-4.3,5.9c-1.8,1.7-4,3-6.7,3.9c-2.7,0.9-6,1.4-9.9,1.4c-1.8,0-3.4,0-4.8-0.1c-1.4-0.1-2.8-0.3-4.2-0.6
		c-1.4-0.4-2.9-0.9-4.5-1.6c-1.6-0.7-3.5-1.8-5.6-3.2c-2.8-1.7-5.2-4.4-7.1-8.1c-2-3.7-2.9-8.1-2.9-13.3c0-4.1,0.5-7.6,1.6-10.5
		c1.1-2.9,2.5-5.4,4.3-7.4c1.8-2,3.8-3.6,6-4.8c2.2-1.2,4.4-2.1,6.6-2.7c2.2-0.6,4.3-1,6.3-1.2c2-0.2,3.6-0.3,4.9-0.3
		c2.8,0,5.7,0.3,8.7,0.8c3,0.5,5.7,1.5,8.1,2.8c2.4,1.3,4.4,3.1,6,5.4c1.6,2.3,2.3,5.2,2.3,8.8c0,2.1-0.6,3.8-1.8,5
		c-1.2,1.2-2.8,2.1-4.6,2.7c-1.8,0.6-3.8,1-5.9,1.1c-2.1,0.1-4.1,0.2-6,0.2h-16.1V119.2z M432.4,92c-1.7,0.1-3,0.7-3.9,2
		c-0.9,1.3-1.6,2.9-2.1,4.8c-0.5,1.9-0.8,4-0.9,6.3c-0.1,2.3-0.2,4.5-0.2,6.5v5.3h8.8c0.3,0,1-0.1,2-0.2c1-0.1,1.9-0.5,2.6-1.2
		c0.4-0.4,0.7-0.9,0.9-1.5c0.2-0.6,0.4-1.3,0.5-1.9c0.1-0.6,0.2-1.2,0.2-1.7c0-0.5,0-0.8,0-1c0-3.6-0.2-6.5-0.6-8.8
		c-0.4-2.3-1-4-1.7-5.3c-0.7-1.3-1.5-2.1-2.4-2.6c-0.9-0.5-1.8-0.7-2.7-0.7H432.4z"/>
	<path class="st1" d="M501,113.7c0.9,0.6,1.8,1.4,2.9,2.3c1.1,0.9,2.1,2,3,3.2c0.9,1.2,1.7,2.5,2.3,3.9c0.6,1.4,0.9,3,0.9,4.6
		c0,2.6-0.6,5-1.7,7.1c-1.1,2.1-2.7,3.9-4.8,5.4c-2.1,1.5-4.5,2.7-7.3,3.5c-2.8,0.8-5.9,1.2-9.3,1.2c-2.6,0-5.2-0.4-7.8-1.3
		s-5.2-2-7.7-3.3c-0.4-0.1-0.7-0.2-0.8-0.2c-1,0-1.9,0.2-2.6,0.6c-0.7,0.4-1.4,0.8-1.9,1.3c-0.6,0.6-1.1,1.2-1.5,1.9h-1.1v-23.4h1.2
		c0.2,1.5,0.5,3.1,0.9,4.6c0.3,1.3,0.8,2.7,1.3,4.2c0.5,1.5,1.2,2.9,2,4.2c1,1.7,2,3.1,3,4.4c1,1.3,2.2,2.2,3.4,2.9
		c1.5,0.9,3.2,1.5,5.1,1.9c1.9,0.4,3.7,0.6,5.5,0.6c1.3,0,2.5,0,3.8-0.1c1.3-0.1,2.5-0.2,3.5-0.5c1.1-0.3,1.9-0.7,2.6-1.2
		c0.7-0.5,1-1.3,1-2.3c0-1.6-0.8-3.1-2.3-4.4c-1.6-1.4-3.5-2.7-5.8-4s-4.8-2.7-7.4-4.1c-2.7-1.4-5.1-3-7.4-4.8
		c-1.5-1.2-2.9-2.3-4-3.4c-1.2-1.1-2.2-2.2-3-3.4c-0.8-1.2-1.5-2.4-1.9-3.7c-0.4-1.3-0.6-2.9-0.6-4.6c0-2.7,0.6-5.1,1.7-7
		c1.1-2,2.6-3.6,4.3-4.8c1.8-1.3,3.7-2.2,5.7-2.8c2.1-0.6,4-0.9,5.9-0.9c1.6,0,3,0.1,4.1,0.2c1.1,0.2,2.2,0.4,3.3,0.8
		c1.1,0.4,2.3,0.9,3.5,1.5c1.3,0.6,2.9,1.3,4.8,2.2c0.1,0.1,0.4,0.1,0.7,0.1c0.9,0,1.7-0.2,2.4-0.6c0.7-0.4,1.2-0.9,1.6-1.4
		c0.5-0.6,0.9-1.3,1.2-2h1l2.2,18.9h-1.1c-0.2-0.8-0.5-1.7-0.9-2.7c-0.3-0.9-0.8-1.8-1.4-2.9c-0.6-1.1-1.4-2.3-2.3-3.5
		c-0.5-0.6-1.2-1.4-2.2-2.5c-1-1.1-2.2-2-3.4-2.8c-0.5-0.3-1.1-0.6-1.8-1.1c-0.8-0.5-1.6-0.9-2.6-1.3c-1-0.4-2.1-0.8-3.2-1.1
		c-1.2-0.3-2.4-0.4-3.6-0.4c-0.7,0-1.4,0-2.2,0.1c-0.8,0.1-1.6,0.2-2.3,0.4c-0.7,0.2-1.3,0.6-1.7,1c-0.5,0.4-0.7,1-0.7,1.7
		c0,2.3,0.7,4.1,2.2,5.4c1.5,1.3,3.4,2.5,5.7,3.7c2.6,1.3,5.3,2.7,8.1,4.2C496.3,110.8,498.8,112.3,501,113.7z"/>
</g>
<g>
	<path class="st1" d="M121.7,217.2c2.8,3.2,5.8,7.2,8.9,11.9c3.1,4.7,6.2,9.4,9.2,13.9c3,4.5,5.7,8.3,8.2,11.5
		c2.4,3.2,4.4,4.8,5.8,4.8v1H127c-5.3,0-9.9-1.4-13.7-4.3c-3.8-2.8-7.3-6.4-10.5-10.7c-3.1-4.3-6.1-8.9-8.8-13.8
		c-2.7-4.9-5.5-9.4-8.5-13.6c-3.2-4.5-5.3-7.7-6.3-9.5c-1-1.8-1.8-2.8-2.5-2.9v53.6h15v1.2H28.6v-1.2h15.1V156.7H28.6v-1.2h78.5
		c6.2,0.5,11.7,1.7,16.6,3.6c2.1,0.9,4.1,2,6.1,3.2c2,1.2,3.8,2.8,5.4,4.6c1.6,1.8,2.9,4,3.8,6.4c0.9,2.4,1.4,5.3,1.4,8.5
		c0,5.6-1.3,10-4,13.1c-2.6,3.1-5.7,5.5-9.2,7c-3.5,1.5-7,2.5-10.6,2.9c-3.6,0.4-6.3,0.6-8.1,0.6h-1.9l-19.5,0.1
		c4.8,0.1,9.4,0.6,13.8,1.3c3.8,0.8,7.6,2,11.5,3.5C116.3,212.1,119.4,214.3,121.7,217.2z M76.7,156.9v47.5h9.1c3.8,0,7-0.3,9.5-0.8
		c2.5-0.5,4.6-1.5,6.1-3c1.5-1.4,2.6-3.4,3.3-5.8c0.6-2.4,1-5.6,1-9.5v-3.3c0-5.5-1.2-9.9-3.7-13.3c-2.5-3.3-5.2-5.9-8.2-7.6
		c-3.5-2-7.4-3.4-11.8-4.2H76.7z"/>
	<path class="st1" d="M238.9,259.2v1.2h-38.6v-9.3l-1,0.6c-3.7,2.1-7.8,4.2-12.3,6.2c-4.5,2-8.9,3.1-13.3,3.1h-0.7
		c-2.1,0-4.1-0.4-6.1-1.2c-2-0.8-3.8-1.9-5.4-3.4c-1.6-1.5-2.9-3.3-3.8-5.5c-1-2.2-1.4-4.7-1.4-7.5c0-1.6,0.2-3.1,0.7-4.6
		c0.5-1.5,1.1-2.9,1.9-4.2c0.6-1,1.5-2.1,2.8-3.4c1.3-1.2,2.7-2.5,4.3-3.7c1.6-1.2,3.3-2.4,5-3.5c1.7-1.1,3.5-2.2,5.2-3.1
		c3.8-2.2,7.8-4.3,12.1-6.4c4.2-2.1,8.3-4.1,12.1-6.1v-3.7c0-2.6-0.2-5.2-0.5-7.8c-0.3-2.6-1-4.9-2.1-7c-1.1-2.1-2.7-3.8-4.7-5.1
		c-2-1.3-4.8-1.9-8.2-1.9c-1.2,0-2.4,0.1-3.7,0.2c-1.2,0.1-2.4,0.5-3.5,1c-0.9,0.4-1.7,1-2.5,1.9c-0.7,0.8-1.1,1.8-1.1,2.9
		c0,1.5,0.6,2.7,1.7,3.6c1.1,0.9,2.4,1.8,3.9,2.7c1.4,0.9,2.7,1.9,3.9,3.1c1.1,1.2,1.7,2.7,1.7,4.6c0,3.2-1.1,5.7-3.2,7.5
		c-2.1,1.8-4.6,2.7-7.4,2.7c-1.7,0-3.4-0.3-5-1c-1.6-0.6-3.1-1.6-4.5-2.8c-1.3-1.2-2.4-2.6-3.3-4.2c-0.8-1.6-1.3-3.3-1.3-5.2
		c0-4.1,1.2-7.4,3.7-9.9c2.4-2.5,5.5-4.4,9.1-5.8c3.6-1.4,7.4-2.3,11.5-2.8s7.7-0.7,10.9-0.7c3.7,0,7.4,0.4,11.2,1
		c3.8,0.7,7.2,1.9,10.3,3.6c3.1,1.7,5.6,4.1,7.6,7.1c2,3,3,6.9,3,11.5v55.4H238.9z M194.9,252.4c0.8-0.4,1.7-0.8,2.7-1.3
		c1-0.5,1.9-1,2.7-1.5v-39.8c-2.2,1-4.2,2.4-6,4.3c-1.8,1.8-3.3,3.9-4.6,6.2c-1.2,2.3-2.2,4.8-2.9,7.4c-0.7,2.6-1,5.3-1,7.9v9.3
		c0,1.9,0.7,3.7,2.2,5.5c1.5,1.7,3.1,2.6,4.9,2.6C193.6,252.9,194.3,252.7,194.9,252.4z"/>
	<path class="st1" d="M292.8,259.2v1.2h-52.6v-1.2h11.4v-75h-11.4v-1.2c2.8,0,6.1,0,10-0.2c3.9-0.1,7.8-0.3,11.8-0.5
		c3.9-0.2,7.7-0.6,11.2-1c3.5-0.4,6.3-0.9,8.4-1.5v79.4H292.8z M282.4,159.4c-0.9-1.4-2.1-2.6-3.7-3.7c-1.5-1-3.3-1.9-5.4-2.5
		c-2-0.6-4.2-0.9-6.5-0.9c-2.3,0-4.5,0.3-6.5,0.9c-2,0.6-3.8,1.4-5.4,2.5c-1.5,1-2.8,2.3-3.7,3.7c-0.9,1.4-1.3,2.9-1.3,4.5
		c0,1.6,0.4,3.1,1.3,4.5c0.9,1.4,2.1,2.6,3.7,3.7c1.5,1,3.3,1.9,5.4,2.5c2,0.6,4.2,0.9,6.5,0.9c2.3,0,4.5-0.3,6.5-0.9
		c2-0.6,3.8-1.4,5.4-2.5c1.5-1,2.8-2.3,3.7-3.7c0.9-1.4,1.3-2.9,1.3-4.5C283.7,162.3,283.3,160.8,282.4,159.4z"/>
	<path class="st1" d="M353.6,214.8c1.3,0.9,2.7,2,4.3,3.4c1.6,1.4,3.1,3,4.5,4.8c1.4,1.8,2.5,3.8,3.4,5.9c0.9,2.1,1.3,4.5,1.3,7
		c0,3.9-0.8,7.4-2.5,10.6c-1.7,3.2-4.1,5.9-7.2,8.2c-3.1,2.2-6.7,4-10.9,5.2c-4.2,1.2-8.8,1.9-13.9,1.9c-3.9,0-7.8-0.7-11.7-1.9
		c-3.9-1.3-7.7-2.9-11.5-4.9c-0.6-0.2-1-0.3-1.2-0.3c-1.5,0-2.8,0.3-3.9,0.9c-1.1,0.6-2,1.2-2.8,1.9c-0.9,0.9-1.6,1.8-2.2,2.8h-1.6
		v-35h1.8c0.3,2.3,0.7,4.6,1.3,6.9c0.5,2,1.1,4.1,1.9,6.4c0.8,2.2,1.8,4.4,3,6.4c1.5,2.5,3,4.7,4.6,6.6c1.5,1.9,3.3,3.3,5.2,4.3
		c2.3,1.3,4.8,2.3,7.6,2.9c2.8,0.7,5.5,1,8.2,1c1.9,0,3.8,0,5.8-0.2c1.9-0.1,3.7-0.4,5.3-0.8c1.6-0.4,2.9-1.1,4-1.9
		c1-0.8,1.6-1.9,1.6-3.4c0-2.4-1.2-4.6-3.5-6.7c-2.3-2-5.2-4-8.7-6c-3.4-1.9-7.2-4-11.2-6.1c-4-2.1-7.7-4.6-11.1-7.3
		c-2.3-1.8-4.3-3.5-6.1-5.2c-1.7-1.6-3.2-3.3-4.5-5.1c-1.2-1.7-2.2-3.6-2.8-5.6c-0.7-2-1-4.3-1-6.9c0-4.1,0.8-7.6,2.5-10.6
		c1.7-2.9,3.9-5.4,6.5-7.3c2.6-1.9,5.5-3.3,8.6-4.2c3.1-0.9,6-1.3,8.8-1.3c2.4,0,4.4,0.1,6.1,0.4c1.7,0.3,3.4,0.7,5,1.3
		c1.6,0.6,3.4,1.3,5.3,2.2c1.9,0.9,4.3,2,7.2,3.3c0.2,0.1,0.5,0.2,1,0.2c1.4,0,2.6-0.3,3.7-0.9c1-0.6,1.9-1.3,2.5-2.1
		c0.7-0.9,1.3-1.9,1.8-3h1.5l3.3,28.3h-1.6c-0.3-1.2-0.8-2.5-1.3-4c-0.5-1.3-1.2-2.8-2.1-4.4s-2-3.4-3.4-5.3
		c-0.7-0.9-1.8-2.1-3.4-3.7c-1.5-1.6-3.3-3-5.2-4.2c-0.7-0.4-1.6-0.9-2.8-1.6c-1.1-0.7-2.5-1.4-4-2c-1.5-0.6-3.1-1.2-4.9-1.6
		c-1.7-0.4-3.6-0.7-5.5-0.7c-1,0-2.1,0.1-3.4,0.1c-1.2,0.1-2.4,0.3-3.4,0.7c-1,0.4-1.9,0.8-2.6,1.5c-0.7,0.7-1,1.5-1,2.6
		c0,3.5,1.1,6.2,3.3,8.1c2.2,1.9,5,3.7,8.5,5.5c3.9,2,8,4.1,12.2,6.4C346.7,210.4,350.4,212.6,353.6,214.8z"/>
	<path class="st1" d="M447.7,189.1c4.2,2.7,7.8,6.8,10.7,12.2c2.9,5.4,4.4,12.1,4.4,19.8s-1.5,14.4-4.4,19.9
		c-2.9,5.5-6.5,9.5-10.7,12.1c-3.2,2.1-5.9,3.7-8.2,4.8c-2.2,1.1-4.3,1.9-6.3,2.5c-1.9,0.5-3.9,0.9-5.8,1c-1.9,0.1-4.3,0.1-7,0.1
		h-1.5c-2.7,0-5.1-0.1-7.1-0.1c-2-0.1-4.1-0.4-6.2-1c-2.1-0.5-4.3-1.4-6.7-2.5c-2.3-1.1-5.1-2.7-8.3-4.8c-4.2-2.6-7.8-6.6-10.7-12.1
		c-2.9-5.5-4.4-12.1-4.4-19.9s1.5-14.4,4.4-19.8c2.9-5.4,6.5-9.5,10.7-12.2c3.2-2.1,5.9-3.7,8.2-4.8c2.3-1.1,4.4-1.9,6.4-2.5
		c1.9-0.5,3.9-0.9,5.8-1c1.9-0.1,4.3-0.2,7-0.2h2.4c2.7,0,5,0.1,7,0.2c1.9,0.1,3.9,0.4,5.8,1c1.9,0.5,4,1.4,6.3,2.5
		C441.8,185.4,444.5,187,447.7,189.1z M427.6,255.9c0.9-1.3,1.6-3.1,2.2-5.5c0.6-2.3,1.1-5,1.4-8.1c0.3-3,0.6-6.4,0.7-10
		c0.1-3.6,0.1-7.3,0.1-11.2c0-3.9-0.1-7.6-0.2-11.2c-0.1-3.6-0.4-6.9-0.7-10c-0.4-3-0.9-5.7-1.6-8c-0.7-2.3-1.6-4-2.7-5.2
		c-2.2-2.4-3.9-3.8-5-4.2c-1.1-0.4-2-0.6-2.6-0.6c-0.6,0-1.5,0.2-2.7,0.6c-1.2,0.4-2.8,1.8-4.9,4.2c-1.1,1.2-2,2.9-2.7,5.2
		c-0.7,2.3-1.2,5-1.6,8c-0.4,3-0.7,6.4-0.7,10c-0.1,3.6-0.1,7.3-0.1,11.2c0,3.9,0,7.6,0.1,11.2c0.1,3.6,0.3,6.9,0.7,10
		c0.4,3,0.9,5.7,1.6,8c0.7,2.3,1.6,4.1,2.7,5.4c1.4,1.5,2.8,2.6,4.3,3.4c1.4,0.8,2.6,1.2,3.4,1.2h1.2
		C423.1,260.4,425.5,258.9,427.6,255.9z"/>
	<path class="st1" d="M566,260.4h-13.2c-4.9,0-9-0.6-12.4-1.7c-3.3-1.1-6.1-2.7-8.2-4.8c-2.1-2-3.6-4.4-4.5-7.1
		c-0.9-2.7-1.3-5.6-1.3-8.7v-41.6c0-2-0.2-4-0.7-6c-0.4-2-1.2-3.7-2.3-5.2c-0.6-0.7-1.4-1.2-2.3-1.4c-1-0.2-1.9-0.4-2.8-0.4
		s-1.7,0.3-2.5,0.8c-0.8,0.6-1.5,1.2-2.2,2c-0.9,0.9-1.6,2.1-2.2,3.7c-0.6,1.6-1.1,3.3-1.6,5.2c-0.4,1.8-0.8,3.7-1,5.5
		c-0.2,1.8-0.3,3.3-0.3,4.5v54.1h11.2v1.2h-53v-1.2H478v-75h-11.4v-1.2c2.8,0,6.2,0,10.2-0.2c4-0.1,8-0.3,12-0.5
		c4-0.2,7.8-0.6,11.3-1c3.5-0.4,6.4-0.9,8.5-1.5v11.4c0.8-1.7,1.6-3.1,2.5-4.2c0.9-1.1,2.1-2.2,3.6-3.3c2.4-2,4.9-3.4,7.6-4.3
		c2.6-0.9,5.5-1.3,8.5-1.3c3,0,6.2,0.2,9.6,0.7c3.4,0.5,6.4,1.6,9,3.3c2.6,1.7,4.6,4,6,7c0.5,1.1,0.9,2.2,1.3,3.4
		c0.3,1.1,0.5,2.3,0.5,3.5v44c0,5.9,0.7,10.6,2,14s3.7,5.2,7,5.2V260.4z"/>
	<path class="st1" d="M627.1,214.8c1.3,0.9,2.7,2,4.3,3.4c1.6,1.4,3.1,3,4.5,4.8c1.4,1.8,2.5,3.8,3.4,5.9c0.9,2.1,1.3,4.5,1.3,7
		c0,3.9-0.8,7.4-2.5,10.6c-1.7,3.2-4.1,5.9-7.2,8.2c-3.1,2.2-6.7,4-10.9,5.2c-4.2,1.2-8.8,1.9-13.9,1.9c-3.9,0-7.8-0.7-11.7-1.9
		c-3.9-1.3-7.7-2.9-11.5-4.9c-0.6-0.2-1-0.3-1.2-0.3c-1.5,0-2.8,0.3-3.9,0.9c-1.1,0.6-2,1.2-2.8,1.9c-0.9,0.9-1.6,1.8-2.2,2.8h-1.6
		v-35h1.8c0.3,2.3,0.7,4.6,1.3,6.9c0.5,2,1.1,4.1,1.9,6.4c0.8,2.2,1.8,4.4,3,6.4c1.5,2.5,3,4.7,4.6,6.6c1.5,1.9,3.3,3.3,5.2,4.3
		c2.3,1.3,4.8,2.3,7.6,2.9c2.8,0.7,5.5,1,8.2,1c1.9,0,3.8,0,5.8-0.2c1.9-0.1,3.7-0.4,5.3-0.8c1.6-0.4,2.9-1.1,4-1.9
		c1-0.8,1.6-1.9,1.6-3.4c0-2.4-1.2-4.6-3.5-6.7c-2.3-2-5.2-4-8.7-6c-3.4-1.9-7.2-4-11.2-6.1c-4-2.1-7.7-4.6-11.1-7.3
		c-2.3-1.8-4.3-3.5-6.1-5.2c-1.7-1.6-3.2-3.3-4.5-5.1c-1.2-1.7-2.2-3.6-2.8-5.6c-0.7-2-1-4.3-1-6.9c0-4.1,0.8-7.6,2.5-10.6
		c1.7-2.9,3.9-5.4,6.5-7.3c2.6-1.9,5.5-3.3,8.6-4.2c3.1-0.9,6-1.3,8.8-1.3c2.4,0,4.4,0.1,6.1,0.4c1.7,0.3,3.4,0.7,5,1.3
		c1.6,0.6,3.4,1.3,5.3,2.2c1.9,0.9,4.3,2,7.2,3.3c0.2,0.1,0.5,0.2,1,0.2c1.4,0,2.6-0.3,3.7-0.9c1-0.6,1.9-1.3,2.5-2.1
		c0.7-0.9,1.3-1.9,1.8-3h1.5l3.3,28.3h-1.6c-0.3-1.2-0.7-2.5-1.3-4c-0.5-1.3-1.2-2.8-2.1-4.4s-2-3.4-3.4-5.3
		c-0.7-0.9-1.8-2.1-3.4-3.7c-1.5-1.6-3.3-3-5.2-4.2c-0.7-0.4-1.6-0.9-2.8-1.6c-1.1-0.7-2.5-1.4-4-2c-1.5-0.6-3.1-1.2-4.9-1.6
		c-1.7-0.4-3.6-0.7-5.5-0.7c-1,0-2.1,0.1-3.4,0.1c-1.2,0.1-2.4,0.3-3.4,0.7c-1,0.4-1.9,0.8-2.6,1.5c-0.7,0.7-1,1.5-1,2.6
		c0,3.5,1.1,6.2,3.3,8.1c2.2,1.9,5,3.7,8.5,5.5c3.9,2,8,4.1,12.2,6.4C620.2,210.4,623.9,212.6,627.1,214.8z"/>
</g>
</svg>
